<?xml version="1.0" encoding="UTF-8"?>
<svg id="Calque_1" data-name="Calque 1" xmlns="http://www.w3.org/2000/svg" viewBox="0 0 1791.04 1881.78">
  <defs>
    <style>
      .cls-1 {
        fill: #000329;
      }

      .cls-1, .cls-2 {
        stroke-width: 0px;
      }

      .cls-2 {
        fill: #0f6eff;
      }
    </style>
  </defs>
  <path class="cls-1" d="M1544.16,368.91c-14.23-14.94-38.02-15.13-52.55-.47l-190.34,192.04-193.74,205.66c-22.14,21.7-22.7,57.17-1.27,79.57l145.82,140.66c21.6,22.57,57.39,23.38,79.98,1.81l113.89-118.52c9.71-9.27,25.8-4.02,28.25,9.18,6.95,37.5,10.34,76.24,9.78,115.86-4.56,323.48-272.74,584.25-596.22,580.05-320.96-4.16-580.78-266.55-580.78-588.48,0-14.43.57-28.73,1.59-42.91.1-1.37.19-2.75.3-4.13.5-6.25,1.1-12.48,1.8-18.67.22-1.96.47-3.91.71-5.87.74-6.07,1.52-12.12,2.45-18.13.14-.88.3-1.74.44-2.62,1.88-11.89,4.17-23.65,6.76-35.3.51-2.27.96-4.56,1.49-6.82,1.13-4.83,2.39-9.61,3.64-14.4.86-3.29,1.73-6.57,2.65-9.84,1.25-4.45,2.55-8.88,3.9-13.28,1.13-3.67,2.31-7.32,3.51-10.96,1.33-4.04,2.64-8.1,4.05-12.1,1.91-5.41,3.94-10.76,6-16.1,1.63-4.21,3.31-8.39,5.03-12.56,2.17-5.25,4.37-10.48,6.69-15.65,1.27-2.84,2.6-5.63,3.91-8.45,2.32-4.95,4.68-9.88,7.13-14.76,1.24-2.47,2.49-4.94,3.76-7.39,3.07-5.89,6.22-11.73,9.48-17.51.72-1.28,1.41-2.57,2.14-3.85,22.16-38.63,48.57-74.52,78.6-107.01l-221.93-212.99c-83.57,89.43-149,196.02-190.49,313.89-.08.24-.18.48-.26.72-2.06,5.87-4.04,11.77-5.98,17.69-.25.77-.52,1.53-.77,2.3-1.79,5.52-3.51,11.08-5.2,16.65-.35,1.17-.73,2.33-1.08,3.51-1.56,5.22-3.04,10.48-4.5,15.74-.43,1.54-.89,3.07-1.31,4.62-1.35,4.94-2.62,9.92-3.88,14.9-.48,1.89-.99,3.76-1.46,5.65-1.15,4.66-2.22,9.35-3.3,14.04-.52,2.24-1.06,4.46-1.56,6.71-.99,4.45-1.9,8.93-2.82,13.41-.51,2.49-1.06,4.97-1.55,7.48-.84,4.27-1.61,8.57-2.38,12.87-.5,2.74-1.03,5.46-1.5,8.21-.7,4.06-1.32,8.15-1.97,12.24-.47,3-.98,6-1.43,9.01-.57,3.9-1.08,7.83-1.6,11.75-.43,3.21-.89,6.41-1.29,9.64-.47,3.79-.86,7.6-1.27,11.4-.37,3.38-.77,6.75-1.11,10.14-.37,3.72-.66,7.46-.98,11.2-.3,3.49-.63,6.97-.89,10.47-.27,3.68-.47,7.38-.7,11.07-.22,3.58-.47,7.16-.65,10.75-.18,3.66-.29,7.33-.43,11-.14,3.64-.3,7.28-.4,10.94-.09,3.66-.11,7.33-.16,11-.05,3.69-.13,7.37-.13,11.08,0,.41-.02.82-.02,1.24,0,1.6.06,3.18.07,4.78.03,4.97.03,9.93.14,14.91.03,1.44.11,2.87.15,4.31.08,3.06.2,6.11.31,9.16.2,5.46.44,10.9.73,16.33.17,3.19.36,6.38.57,9.57.34,5.28.75,10.54,1.18,15.79.27,3.23.52,6.45.82,9.67.49,5.23,1.06,10.44,1.64,15.65.35,3.16.67,6.34,1.05,9.49.76,6.18,1.61,12.32,2.5,18.46.95,6.6,1.99,13.17,3.08,19.73.45,2.67.86,5.36,1.33,8.02,1,5.68,2.09,11.32,3.19,16.96.37,1.87.72,3.75,1.1,5.62,1.26,6.24,2.6,12.45,3.99,18.65.19.85.39,1.7.58,2.55,16.5,72.43,41.69,141.55,74.57,206.12.09-.12.18-.24.26-.36,150.5,294.59,459.38,494.96,811.07,490.02,488.67-6.86,882.69-405.13,882.69-895.43,0-239.34-93.91-456.71-246.88-617.35Z"/>
  <g>
    <circle class="cls-2" cx="865.19" cy="149.6" r="149.6"/>
    <circle class="cls-2" cx="528.27" cy="274.52" r="149.6"/>
    <circle class="cls-2" cx="1201.5" cy="274.52" r="149.6"/>
  </g>
</svg>