<?xml version="1.0" encoding="UTF-8"?>
<svg id="Calque_1" data-name="Calque 1" xmlns="http://www.w3.org/2000/svg"
    viewBox="0 0 1802.24 460.09">
    <defs>
        <style>
            .cls-1 {
            fill: #000329;
            }

            .cls-1, .cls-2 {
            stroke-width: 0px;
            }

            .cls-2 {
            fill: #0f6eff;
            }
        </style>
    </defs>
    <circle class="cls-2" cx="1759.06" cy="43.01" r="43.01" />
    <circle class="cls-2" cx="1355.04" cy="43.01" r="43.01" />
    <circle class="cls-2" cx="630.58" cy="43.01" r="43.01" />
    <g>
        <path class="cls-1"
            d="M273.74,109.59v222.89c0,78.8-51.59,127.62-134.41,127.62-71.16,0-120.97-35.88-132.51-95.3h83.35c5.98,16.75,27.38,25.79,48.36,25.79,28.94,0,52.2-18.39,52.2-48.21v-7.48c-18.84,11.96-41.23,18.82-65.43,18.82C53.42,353.71,0,300.22,0,227.67s53.42-126.11,125.31-126.11c30.35,0,57.83,10.88,79.09,29.06l10.95-21.04h58.39ZM192.98,227.67c0-31.67-22.25-54.66-53.34-54.66s-53.53,22.98-53.53,54.66,22.25,54.92,53.53,54.92,53.34-22.98,53.34-54.92Z" />
        <path class="cls-1"
            d="M307.36,252.67V109.57h86.37v139.35c0,26.46,14.22,42.03,37.31,42.03s37.03-15.83,37.03-42.03V109.57h86.37v143.11c0,70.16-49.33,115.87-123.4,115.87s-123.68-45.7-123.68-115.87Z" />
        <path class="cls-1" d="M587.4,109.56h86.36v250.75h-86.36V109.56Z" />
        <path class="cls-1"
            d="M974.84,19.02v341.3h-63.92l-8.14-18.62c-20.4,17.17-46.43,27.1-75.63,27.1-76.94,0-131.75-55.93-131.75-133.85s54.81-133.6,131.75-133.6c23.15,0,44.34,6.25,62.31,17.41V19.02h85.38ZM894.83,234.95c0-32.74-23.78-57.38-56.13-57.38s-56.13,24.64-56.13,57.38,23.78,57.38,56.13,57.38,56.13-24.64,56.13-57.38Z" />
        <path class="cls-1"
            d="M1275.76,19.02v341.3h-63.91l-8.14-18.62c-20.41,17.17-46.43,27.1-75.64,27.1-76.94,0-131.75-55.93-131.75-133.85s54.81-133.6,131.75-133.6c23.15,0,44.34,6.25,62.31,17.41V19.02h85.38ZM1195.75,234.95c0-32.74-23.78-57.38-56.13-57.38s-56.13,24.64-56.13,57.38,23.78,57.38,56.13,57.38,56.13-24.64,56.13-57.38Z" />
        <path class="cls-1" d="M1311.85,109.56h86.37v250.75h-86.37V109.56Z" />
        <path class="cls-1"
            d="M1682.32,207.42v152.9h-86.37v-140.96c0-29.18-10.96-43.67-32.7-43.67-26.93,0-42.43,18.81-42.43,50.73v133.9h-86.37V109.57h60.6l11.86,25.86c18.67-20.8,46.51-33.27,78.94-33.27,58.23,0,96.47,41.38,96.47,105.26Z" />
        <path class="cls-1" d="M1715.87,109.56h86.37v250.75h-86.37V109.56Z" />
    </g>
    <g>
        <path class="cls-2"
            d="M345.69,398.92c5.15,2.62,9.09,6.37,11.84,11.23,2.74,4.87,4.12,10.6,4.12,17.2s-1.37,12.31-4.12,17.15c-2.74,4.84-6.69,8.54-11.84,11.1-5.15,2.56-11.24,3.84-18.26,3.84h-20.07v-64.45h20.07c7.03,0,13.12,1.31,18.26,3.93ZM346.48,445.9c4.38-4.41,6.57-10.59,6.57-18.54s-2.2-14.27-6.61-18.77c-4.41-4.5-10.74-6.75-19-6.75h-11.65v50.68h11.65c8.32,0,14.67-2.2,19.05-6.61Z" />
        <path class="cls-2"
            d="M486.2,445.11h-28.11l-5.18,14.33h-8.88l23.3-64.08h9.71l23.21,64.08h-8.88l-5.18-14.33ZM483.8,438.27l-11.65-32.55-11.65,32.55h23.3Z" />
        <path class="cls-2" d="M594.21,394.99v64.45h-8.42v-64.45h8.42Z" />
        <path class="cls-2" d="M692.32,452.6h22.56v6.84h-30.98v-64.45h8.42v57.61Z" />
        <path class="cls-2"
            d="M844.35,394.99l-20.99,40.13v24.32h-8.41v-24.32l-21.08-40.13h9.34l15.91,32.64,15.91-32.64h9.34Z" />
        <path class="cls-2"
            d="M1077.47,413.67c-1.79-3.76-4.38-6.67-7.77-8.74-3.39-2.06-7.34-3.1-11.84-3.1s-8.55,1.03-12.16,3.1c-3.61,2.07-6.44,5.03-8.51,8.88-2.07,3.85-3.1,8.31-3.1,13.36s1.03,9.49,3.1,13.32c2.07,3.82,4.9,6.77,8.51,8.83,3.61,2.07,7.66,3.1,12.16,3.1,6.29,0,11.47-1.88,15.54-5.64,4.07-3.76,6.44-8.85,7.12-15.26h-25.71v-6.84h34.68v6.47c-.49,5.3-2.16,10.16-4.99,14.56-2.84,4.41-6.57,7.89-11.19,10.45-4.62,2.56-9.77,3.84-15.44,3.84-5.98,0-11.44-1.4-16.37-4.21-4.93-2.8-8.83-6.7-11.7-11.7-2.87-4.99-4.3-10.63-4.3-16.92s1.43-11.94,4.3-16.97c2.87-5.02,6.76-8.94,11.7-11.74,4.93-2.8,10.39-4.21,16.37-4.21,6.84,0,12.9,1.7,18.17,5.09,5.27,3.39,9.11,8.17,11.51,14.33h-10.08Z" />
        <path class="cls-2"
            d="M1209.89,459.44l-15.35-26.35h-10.17v26.35h-8.41v-64.45h20.81c4.87,0,8.98.83,12.34,2.5,3.36,1.66,5.87,3.92,7.54,6.75,1.66,2.84,2.5,6.07,2.5,9.71,0,4.44-1.28,8.35-3.84,11.74-2.56,3.39-6.4,5.64-11.51,6.75l16.18,27h-10.08ZM1184.37,426.34h12.39c4.56,0,7.98-1.12,10.26-3.38,2.28-2.25,3.42-5.25,3.42-9.02s-1.13-6.78-3.38-8.88c-2.25-2.1-5.69-3.14-10.31-3.14h-12.39v24.41Z" />
        <path class="cls-2"
            d="M1320.39,455.88c-4.93-2.8-8.83-6.72-11.7-11.74-2.87-5.02-4.3-10.68-4.3-16.97s1.43-11.94,4.3-16.97c2.87-5.02,6.76-8.94,11.7-11.74,4.93-2.8,10.39-4.21,16.37-4.21s11.53,1.4,16.46,4.21c4.93,2.81,8.82,6.7,11.65,11.7,2.84,4.99,4.25,10.67,4.25,17.02s-1.42,12.02-4.25,17.02c-2.84,4.99-6.72,8.89-11.65,11.7-4.93,2.81-10.42,4.21-16.46,4.21s-11.44-1.4-16.37-4.21ZM1348.92,449.64c3.61-2.09,6.44-5.09,8.51-8.97,2.06-3.88,3.1-8.38,3.1-13.5s-1.03-9.69-3.1-13.55c-2.07-3.85-4.89-6.83-8.46-8.92-3.58-2.1-7.65-3.14-12.21-3.14s-8.63,1.05-12.21,3.14c-3.58,2.1-6.4,5.07-8.46,8.92-2.07,3.85-3.1,8.37-3.1,13.55s1.03,9.62,3.1,13.5c2.07,3.88,4.9,6.88,8.51,8.97,3.61,2.1,7.66,3.14,12.16,3.14s8.55-1.05,12.16-3.14Z" />
        <path class="cls-2"
            d="M1536.59,394.99l-18.68,64.45h-9.43l-14.98-51.88-15.54,51.88-9.34.09-18.03-64.55h8.97l14.06,54.65,15.54-54.65h9.43l14.8,54.47,14.15-54.47h9.06Z" />
        <path class="cls-2" d="M1660.87,394.99v6.84h-17.57v57.61h-8.42v-57.61h-17.66v-6.84h43.65Z" />
        <path class="cls-2"
            d="M1796.25,394.99v64.45h-8.41v-29.22h-32.83v29.22h-8.41v-64.45h8.41v28.3h32.83v-28.3h8.41Z" />
    </g>
</svg>